<svg xmlns="http://www.w3.org/2000/svg" xmlns:xlink="http://www.w3.org/1999/xlink" width="137.335" height="36.797" viewBox="0 0 137.335 36.797">
  <defs>
    <clipPath id="clip-path">
      <rect id="Rectangle_43" data-name="Rectangle 43" width="137.335" height="36.797" transform="translate(0 0)" fill="none"/>
    </clipPath>
  </defs>
  <g id="Groupe_5" data-name="Groupe 5" transform="translate(0 0)" clip-path="url(#clip-path)">
    <path id="Tracé_6" data-name="Tracé 6" d="M19.642,0H0V36.8H11.142V24.987h8.5c8.608,0,13.239-5.516,13.239-12.353C32.881,5.734,28.25,0,19.642,0m-1.43,15.726h-7.07V9.262h7.07a3.234,3.234,0,1,1,0,6.464" fill="#fff"/>
    <path id="Tracé_7" data-name="Tracé 7" d="M64.441,9.261V3.434L36.532,0V36.8l27.909-1.755V27.519H47.674V22.842H64.052V13.565H47.674v-4.3ZM57.992,18.4l-13.333.388a2.079,2.079,0,0,1-1.693,1.71v.046L42.577,34l-.388-13.457V20.5a2.123,2.123,0,0,1-1.756-2.1,2.148,2.148,0,0,1,2.144-2.144,2.106,2.106,0,0,1,2.082,1.756Z" fill="#fff"/>
    <path id="Tracé_8" data-name="Tracé 8" d="M69.413,3.636V9.262H86.18v4.3H69.8v9.277H86.18V27.52H69.413v7.428L97.322,36.8V0ZM92.054,20.543a2.106,2.106,0,0,1-2.082-1.756L76.639,18.4l13.333-.389A2.079,2.079,0,0,1,91.666,16.3v-.047L92.054,2.8l.388,13.457V16.3A2.108,2.108,0,0,1,94.2,18.4a2.138,2.138,0,0,1-2.144,2.144" fill="#fff"/>
    <path id="Tracé_9" data-name="Tracé 9" d="M122.822,17.093,136.73,0H123.1l-9.666,13.783V0H102.295V36.8h11.141V26.587l2.052-2.75,8.266,12.96h13.582Z" fill="#fff"/>
  </g>
</svg>
